<svg width="128" height="145" viewBox="0 0 128 145" fill="none" xmlns="http://www.w3.org/2000/svg">
<g clip-path="url(#clip0_2809_20288)">
<circle cx="69.3208" cy="97.5103" r="40.7231" fill="white"/>
<ellipse cx="14.0245" cy="85.503" rx="9.42578" ry="15.3651" transform="rotate(10.3337 14.0245 85.503)" fill="white"/>
<path d="M34.6712 4.67043C38.7041 -0.70949 46.5731 -1.21246 51.2542 3.61066L60.6271 13.2682C67.1726 20.0125 75.1965 25.1337 84.0608 28.2254L120.054 40.7788C125.785 42.7776 129.062 48.8168 127.624 54.7276L117.073 98.0944L123.158 106.514L123.218 106.601C124.465 108.422 124.043 110.918 122.249 112.222C120.454 113.525 117.957 113.15 116.62 111.394L116.557 111.31L115.24 109.487C109.761 129.794 91.2575 144.733 69.2738 144.733L68.6579 144.729C44.6199 144.424 24.8748 126.257 22.0139 102.856C18.7163 106.444 14.6274 108.303 10.6227 107.54L10.444 107.504C2.96943 105.933 -1.37549 95.7057 0.655413 84.462L0.704941 84.1941C2.87113 72.756 10.8235 64.6636 18.467 66.119L18.6454 66.1547C22.507 66.9663 25.533 70.0882 27.2763 74.4673C29.9185 69.523 33.4036 65.0998 37.5391 61.39C37.1726 61.2402 36.8149 61.0591 36.4683 60.8445C32.484 58.3786 26.6859 53.3309 25.1861 44.3039C23.8165 36.061 25.562 26.2219 27.2509 19.4632C28.6036 14.0502 31.3275 9.13129 34.6712 4.67043ZM69.2738 56.5051C46.9773 56.5051 28.9028 74.6295 28.9028 96.9868C28.9028 112.332 37.4184 125.683 49.9693 132.548C50.2057 132.432 50.4566 132.338 50.7204 132.267L58.1553 130.287L58.548 130.18C66.7781 127.894 74.0191 122.924 79.1225 116.048L79.1859 115.964C80.5456 114.226 83.0474 113.882 84.8249 115.209C86.6304 116.556 87.0048 119.117 85.6611 120.927L85.3646 121.322C79.8443 128.599 72.3301 134.071 63.7746 137.095C65.5726 137.34 67.4084 137.468 69.2738 137.468C90.011 137.468 107.096 121.789 109.384 101.609C108.162 100.45 106.585 99.7133 104.886 99.5368L67.9597 95.6948C67.8685 96.5896 67.7378 97.4923 67.566 98.3998L67.5077 98.7013C64.971 111.433 55.2333 120.239 45.643 118.413L45.4172 118.368C35.9612 116.401 30.2305 104.713 32.5067 92.0362L32.5625 91.7344C35.0045 78.8409 44.8197 69.8805 54.4855 71.721C61.2985 73.0182 66.2184 79.3349 67.6747 87.4658C67.7646 87.4667 67.8555 87.4706 67.9467 87.4779L68.0517 87.4876L88.9728 89.6638C88.9885 89.6051 89.006 89.5464 89.0253 89.4876C90.8095 84.0687 92.8686 73.9641 87.4869 65.3616C86.7319 64.1553 86.0351 63.1025 85.3921 62.1855C84.1511 60.4156 82.2181 59.05 79.9962 57.9494C76.5816 57.0082 72.9864 56.5051 69.2738 56.5051ZM53.134 78.8584C51.0368 78.4592 48.3895 79.1124 45.6925 81.5744C42.993 84.0388 40.6368 88.0419 39.6807 93.0899C38.7249 98.1377 39.4537 102.728 41.0643 106.013C42.6733 109.295 44.8976 110.876 46.9948 111.275C49.092 111.674 51.7393 111.021 54.4363 108.559C57.1358 106.095 59.492 102.092 60.4481 97.0443C61.4042 91.9965 60.6751 87.4059 59.0646 84.1208C57.4555 80.8388 55.2312 79.2577 53.134 78.8584ZM17.1153 73.2564C16.397 73.1196 14.8086 73.2676 12.6929 75.4208C10.6171 77.5331 8.67493 81.0504 7.82285 85.5496C6.97084 90.0486 7.49168 94.0353 8.65068 96.7634C9.83203 99.5444 11.2561 100.265 11.9744 100.402C12.6928 100.539 14.2813 100.391 16.3969 98.2385C18.4726 96.1258 20.4142 92.6083 21.2663 88.1094C22.1182 83.6104 21.5977 79.624 20.4387 76.8959C19.2574 74.1152 17.8337 73.3932 17.1153 73.2564Z" fill="#141414"/>
<path d="M44.3992 92.5503C45.307 95.9435 47.1358 95.6732 48.4148 94.5099C50.1167 92.9641 50.749 90.2602 50.2708 86.6714C51.9744 86.0652 54.2888 88.111 54.9107 91.8241C55.6689 96.3421 54.2152 101.718 51.4591 104.753C48.9112 107.554 45.7003 107.239 44.1573 104.024C42.7254 101.047 42.8274 95.5578 44.4035 92.5452L44.3992 92.5503Z" fill="#141414"/>
<path d="M10.4657 83.6865C11.2206 86.6035 12.7913 86.3845 13.8965 85.3956C15.3673 84.0815 15.9287 81.7666 15.5436 78.6847C17.0093 78.1766 18.9802 79.9478 19.4876 83.1373C20.1063 87.0182 18.8216 91.6195 16.4361 94.2037C14.2308 96.5887 11.4787 96.2953 10.1777 93.5271C8.97025 90.9634 9.09628 86.2553 10.4695 83.6821L10.4657 83.6865Z" fill="#141414"/>
</g>
<defs>
<clipPath id="clip0_2809_20288">
<rect width="128" height="145" fill="white"/>
</clipPath>
</defs>
</svg>
